<svg width="1440" height="820" viewBox="0 0 1440 820" fill="none" xmlns="http://www.w3.org/2000/svg">
<g clip-path="url(#clip0)">
<rect width="1440" height="820" fill="#5965E0"/>
<g opacity="0.08">
<path d="M287.527 80H454.433L315.582 740H148.677L287.527 80Z" fill="url(#paint0_linear)"/>
<path d="M533.502 80H700L592.08 598.4H425.542L533.502 80Z" fill="url(#paint1_linear)"/>
<path d="M39.9594 80H206.458L98.5377 598.4H-68L39.9594 80Z" fill="url(#paint2_linear)"/>
</g>
<g clip-path="url(#clip1)">
<path d="M974.522 232.514L969.306 257.797H955.718L960.934 232.514C961.343 230.527 961.106 230.16 959.18 230.16H954.275C952.362 230.16 951.961 230.527 951.556 232.463C951.556 232.463 951.556 232.497 951.556 232.514L946.34 257.797H932.74L937.96 232.514C938.369 230.527 938.132 230.16 936.202 230.16H931.297C929.367 230.16 928.979 230.531 928.57 232.514L923.35 257.797H909.762L917.77 218.986H928.807L930.557 222.321C931.563 221.229 932.782 220.368 934.133 219.794C935.483 219.219 936.937 218.944 938.398 218.986H941.214C946.528 218.986 950.113 221.365 951.397 225.386C953.772 220.915 957.214 218.986 961.371 218.986H964.192C972.176 218.986 976.235 224.295 974.522 232.514Z" fill="white"/>
<path d="M1015.96 232.514L1013.54 244.269C1011.84 252.488 1005.59 257.797 997.594 257.797H987.301C979.321 257.797 975.262 252.483 976.959 244.265L979.383 232.514C981.075 224.295 987.33 218.986 995.326 218.986H1005.64C1013.6 218.986 1017.66 224.295 1015.96 232.514ZM1002.36 232.514C1002.77 230.527 1002.53 230.16 1000.61 230.16H995.702C993.772 230.16 993.384 230.531 992.975 232.514L990.547 244.265C990.138 246.252 990.379 246.618 992.305 246.618H997.21C999.135 246.618 999.528 246.248 999.937 244.265L1002.36 232.514Z" fill="white"/>
<path d="M1100.76 229.424C1100.27 231.63 1099.07 233.601 1097.36 235.023L1090.43 240.918C1088.77 242.355 1086.69 243.163 1084.52 243.208H1074.94L1074.72 244.248C1074.31 246.235 1074.55 246.602 1076.48 246.602H1097.21L1094.91 257.78H1071.46C1063.48 257.78 1059.42 252.466 1061.12 244.248L1063.54 232.497C1065.24 224.279 1071.49 218.969 1079.48 218.969H1089.8C1097.76 218.986 1101.88 224.018 1100.76 229.424ZM1086.53 232.514C1086.94 230.527 1086.7 230.16 1084.77 230.16H1079.87C1077.95 230.156 1077.54 230.531 1077.13 232.514L1076.31 236.56H1084.4C1084.77 236.545 1085.12 236.407 1085.4 236.17C1085.68 235.932 1085.87 235.606 1085.96 235.242L1086.53 232.514Z" fill="white"/>
<path d="M1116.04 251.208C1115.29 254.85 1112.5 257.801 1108.27 257.801C1104.05 257.801 1102.48 254.854 1103.23 251.208C1103.99 247.562 1106.78 244.619 1111 244.619C1115.22 244.619 1116.78 247.562 1116.04 251.208Z" fill="#4CD62B"/>
<path d="M1145.2 218.986L1142.89 230.156L1137.17 257.793H1123.58L1129.31 230.156H1122.52L1124.83 218.982L1145.2 218.986ZM1135.11 211.74C1132.75 209.046 1133.47 204.423 1136.71 201.421C1139.94 198.419 1144.47 198.175 1146.84 200.874C1149.21 203.572 1148.47 208.195 1145.24 211.197C1142.01 214.199 1137.47 214.443 1135.11 211.74Z" fill="white"/>
<path d="M1167 224.573L1162.94 244.265C1162.53 246.252 1162.77 246.618 1164.69 246.618H1173.14L1170.83 257.797H1159.68C1151.7 257.797 1147.64 252.483 1149.33 244.265L1153.4 224.573H1148.26L1150.56 213.395H1155.71L1157.6 204.242H1171.2L1169.31 213.395H1180.01L1177.69 224.573H1167Z" fill="white"/>
<path d="M856.734 204.692H873.977L859.632 275H842.389L856.734 204.692Z" fill="white"/>
<path d="M882.034 204.692H899.276L888.1 259.78H870.853L882.034 204.692Z" fill="white"/>
<path d="M831.18 204.692H848.423L837.247 259.78H820L831.18 204.692Z" fill="white"/>
<path d="M1066.28 218.986L1041.09 257.797H1027.19L1018 218.986H1032.88L1036.88 244.471L1051.39 219.007L1066.28 218.986Z" fill="white"/>
</g>
<path d="M885.598 463H887.793V456.658H893.972V454.776H887.793V450.344H894.618V448.455H885.598V463ZM900.282 463.241C902.086 463.241 903.102 462.325 903.506 461.509H903.592V463H905.665V455.756C905.665 452.581 903.165 451.949 901.433 451.949C899.458 451.949 897.64 452.744 896.93 454.733L898.925 455.188C899.238 454.413 900.033 453.668 901.461 453.668C902.832 453.668 903.535 454.385 903.535 455.621V455.67C903.535 456.445 902.739 456.43 900.779 456.658C898.712 456.899 896.596 457.439 896.596 459.918C896.596 462.062 898.208 463.241 900.282 463.241ZM900.744 461.537C899.543 461.537 898.677 460.997 898.677 459.946C898.677 458.81 899.685 458.405 900.914 458.241C901.603 458.149 903.237 457.964 903.542 457.659V459.065C903.542 460.358 902.512 461.537 900.744 461.537ZM913.664 463.192C915.916 462.979 917.358 461.509 917.571 459.548H915.504C915.234 460.727 914.318 461.423 913.103 461.423C911.306 461.423 910.149 459.925 910.149 457.545C910.149 455.209 911.328 453.739 913.103 453.739C914.453 453.739 915.277 454.591 915.504 455.614H917.571C917.343 453.412 915.547 451.949 913.068 451.949C909.993 451.949 908.004 454.264 908.004 457.595C908.004 460.592 909.595 462.801 912.279 463.163L912.031 464.349C913.075 464.449 913.529 464.655 913.522 465.287C913.515 465.919 912.841 466.189 911.86 466.189L911.903 467.375C914.005 467.375 915.149 466.509 915.142 465.223C915.142 464.151 914.417 463.653 913.6 463.526L913.664 463.192ZM923.016 463.241C924.82 463.241 925.836 462.325 926.241 461.509H926.326V463H928.4V455.756C928.4 452.581 925.9 451.949 924.167 451.949C922.192 451.949 920.374 452.744 919.664 454.733L921.66 455.188C921.972 454.413 922.768 453.668 924.195 453.668C925.566 453.668 926.269 454.385 926.269 455.621V455.67C926.269 456.445 925.474 456.43 923.513 456.658C921.447 456.899 919.33 457.439 919.33 459.918C919.33 462.062 920.942 463.241 923.016 463.241ZM923.478 461.537C922.278 461.537 921.411 460.997 921.411 459.946C921.411 458.81 922.42 458.405 923.648 458.241C924.337 458.149 925.971 457.964 926.276 457.659V459.065C926.276 460.358 925.246 461.537 923.478 461.537ZM938.645 448.455H936.521V463H938.645V448.455ZM946.097 463.22C949.172 463.22 951.182 460.969 951.182 457.595C951.182 454.2 949.172 451.949 946.097 451.949C943.022 451.949 941.012 454.2 941.012 457.595C941.012 460.969 943.022 463.22 946.097 463.22ZM946.104 461.438C944.094 461.438 943.157 459.683 943.157 457.588C943.157 455.5 944.094 453.724 946.104 453.724C948.1 453.724 949.037 455.5 949.037 457.588C949.037 459.683 948.1 461.438 946.104 461.438ZM958.126 467.318C960.903 467.318 963.048 466.047 963.048 463.241V452.091H960.967V453.859H960.811C960.435 453.185 959.682 451.949 957.651 451.949C955.016 451.949 953.077 454.03 953.077 457.503C953.077 460.983 955.058 462.837 957.636 462.837C959.639 462.837 960.413 461.707 960.797 461.011H960.932V463.156C960.932 464.868 959.76 465.607 958.148 465.607C956.379 465.607 955.69 464.719 955.314 464.094L953.489 464.847C954.064 466.182 955.52 467.318 958.126 467.318ZM958.105 461.075C956.209 461.075 955.222 459.619 955.222 457.474C955.222 455.379 956.188 453.753 958.105 453.753C959.959 453.753 960.953 455.266 960.953 457.474C960.953 459.726 959.938 461.075 958.105 461.075ZM965.896 463H968.02V452.091H965.896V463ZM966.969 450.408C967.7 450.408 968.311 449.839 968.311 449.143C968.311 448.447 967.7 447.872 966.969 447.872C966.23 447.872 965.626 448.447 965.626 449.143C965.626 449.839 966.23 450.408 966.969 450.408ZM973 456.523C973 454.783 974.066 453.788 975.543 453.788C976.985 453.788 977.858 454.733 977.858 456.317V463H979.982V456.061C979.982 453.362 978.498 451.949 976.267 451.949C974.627 451.949 973.554 452.709 973.05 453.866H972.915V452.091H970.877V463H973V456.523ZM992.718 463.22C995.296 463.22 996.965 461.672 997.2 459.548H995.133C994.863 460.727 993.947 461.423 992.732 461.423C990.935 461.423 989.778 459.925 989.778 457.545C989.778 455.209 990.957 453.739 992.732 453.739C994.082 453.739 994.906 454.591 995.133 455.614H997.2C996.972 453.412 995.175 451.949 992.697 451.949C989.621 451.949 987.633 454.264 987.633 457.595C987.633 460.884 989.55 463.22 992.718 463.22ZM1004.07 463.22C1007.14 463.22 1009.15 460.969 1009.15 457.595C1009.15 454.2 1007.14 451.949 1004.07 451.949C1000.99 451.949 998.98 454.2 998.98 457.595C998.98 460.969 1000.99 463.22 1004.07 463.22ZM1004.07 461.438C1002.06 461.438 1001.13 459.683 1001.13 457.588C1001.13 455.5 1002.06 453.724 1004.07 453.724C1006.07 453.724 1007.01 455.5 1007.01 457.588C1007.01 459.683 1006.07 461.438 1004.07 461.438ZM1011.52 463H1013.64V456.274C1013.64 454.804 1014.67 453.781 1015.88 453.781C1017.06 453.781 1017.88 454.562 1017.88 455.749V463H1019.99V456.047C1019.99 454.733 1020.8 453.781 1022.18 453.781C1023.3 453.781 1024.23 454.406 1024.23 455.884V463H1026.35V455.685C1026.35 453.192 1024.96 451.949 1022.98 451.949C1021.41 451.949 1020.24 452.702 1019.71 453.866H1019.6C1019.12 452.673 1018.12 451.949 1016.66 451.949C1015.22 451.949 1014.15 452.666 1013.69 453.866H1013.56V452.091H1011.52V463ZM1042.66 454.754C1042.22 453.057 1040.9 451.949 1038.54 451.949C1036.07 451.949 1034.33 453.249 1034.33 455.18C1034.33 456.729 1035.26 457.759 1037.31 458.213L1039.16 458.618C1040.21 458.852 1040.7 459.321 1040.7 460.003C1040.7 460.848 1039.8 461.509 1038.4 461.509C1037.13 461.509 1036.32 460.962 1036.06 459.889L1034.01 460.202C1034.36 462.134 1035.97 463.22 1038.42 463.22C1041.05 463.22 1042.88 461.821 1042.88 459.847C1042.88 458.305 1041.9 457.354 1039.89 456.892L1038.16 456.494C1036.96 456.21 1036.44 455.805 1036.45 455.067C1036.44 454.229 1037.35 453.632 1038.56 453.632C1039.88 453.632 1040.49 454.364 1040.74 455.095L1042.66 454.754ZM1049.91 463.22C1052.29 463.22 1053.98 462.048 1054.46 460.273L1052.45 459.911C1052.07 460.94 1051.14 461.466 1049.94 461.466C1048.12 461.466 1046.9 460.287 1046.84 458.185H1054.59V457.432C1054.59 453.49 1052.24 451.949 1049.77 451.949C1046.73 451.949 1044.72 454.264 1044.72 457.616C1044.72 461.004 1046.7 463.22 1049.91 463.22ZM1046.85 456.594C1046.93 455.045 1048.05 453.703 1049.78 453.703C1051.43 453.703 1052.51 454.925 1052.51 456.594H1046.85ZM1063.86 458.476C1063.87 460.33 1062.49 461.21 1061.3 461.21C1059.98 461.21 1059.07 460.259 1059.07 458.774V452.091H1056.95V459.03C1056.95 461.736 1058.44 463.142 1060.53 463.142C1062.17 463.142 1063.29 462.276 1063.79 461.111H1063.9V463H1065.99V452.091H1063.86V458.476ZM1084.15 453.05H1086.4C1085.91 450.216 1083.49 448.256 1080.35 448.256C1076.59 448.256 1073.84 451.089 1073.84 455.734C1073.84 460.337 1076.51 463.199 1080.45 463.199C1083.98 463.199 1086.5 460.884 1086.5 457.212V455.557H1080.79V457.368H1084.38C1084.33 459.712 1082.78 461.196 1080.45 461.196C1077.89 461.196 1076.02 459.257 1076.02 455.72C1076.02 452.197 1077.9 450.259 1080.37 450.259C1082.3 450.259 1083.61 451.324 1084.15 453.05ZM1089.8 463H1091.93V452.091H1089.8V463ZM1090.88 450.408C1091.61 450.408 1092.22 449.839 1092.22 449.143C1092.22 448.447 1091.61 447.872 1090.88 447.872C1090.14 447.872 1089.53 448.447 1089.53 449.143C1089.53 449.839 1090.14 450.408 1090.88 450.408ZM1099.88 452.091H1097.64V449.477H1095.51V452.091H1093.92V453.795H1095.51V460.237C1095.51 462.219 1097.02 463.178 1098.7 463.142C1099.37 463.135 1099.83 463.007 1100.07 462.915L1099.69 461.161C1099.55 461.189 1099.29 461.253 1098.94 461.253C1098.26 461.253 1097.64 461.026 1097.64 459.797V453.795H1099.88V452.091ZM1104.58 456.523C1104.58 454.783 1105.68 453.788 1107.2 453.788C1108.66 453.788 1109.53 454.719 1109.53 456.317V463H1111.66V456.061C1111.66 453.341 1110.16 451.949 1107.92 451.949C1106.22 451.949 1105.2 452.688 1104.69 453.866H1104.55V448.455H1102.46V463H1104.58V456.523ZM1121.4 458.476C1121.41 460.33 1120.03 461.21 1118.84 461.21C1117.52 461.21 1116.61 460.259 1116.61 458.774V452.091H1114.49V459.03C1114.49 461.736 1115.97 463.142 1118.07 463.142C1119.71 463.142 1120.83 462.276 1121.33 461.111H1121.44V463H1123.53V452.091H1121.4V458.476ZM1126.56 463H1128.63V461.303H1128.81C1129.19 461.999 1129.97 463.213 1131.96 463.213C1134.6 463.213 1136.52 461.097 1136.52 457.567C1136.52 454.03 1134.57 451.949 1131.94 451.949C1129.91 451.949 1129.18 453.185 1128.81 453.859H1128.68V448.455H1126.56V463ZM1128.64 457.545C1128.64 455.266 1129.63 453.753 1131.48 453.753C1133.41 453.753 1134.37 455.379 1134.37 457.545C1134.37 459.733 1133.38 461.402 1131.48 461.402C1129.66 461.402 1128.64 459.839 1128.64 457.545ZM885.428 497.091H887.551V491.303H887.679C888.062 491.999 888.844 493.213 890.832 493.213C893.474 493.213 895.392 491.097 895.392 487.567C895.392 484.03 893.446 481.949 890.811 481.949C888.787 481.949 888.055 483.185 887.679 483.859H887.501V482.091H885.428V497.091ZM887.509 487.545C887.509 485.266 888.503 483.753 890.357 483.753C892.281 483.753 893.247 485.379 893.247 487.545C893.247 489.733 892.253 491.402 890.357 491.402C888.531 491.402 887.509 489.839 887.509 487.545ZM900.946 493.241C902.75 493.241 903.766 492.325 904.17 491.509H904.256V493H906.33V485.756C906.33 482.581 903.83 481.949 902.097 481.949C900.122 481.949 898.304 482.744 897.594 484.733L899.589 485.188C899.902 484.413 900.697 483.668 902.125 483.668C903.496 483.668 904.199 484.385 904.199 485.621V485.67C904.199 486.445 903.403 486.43 901.443 486.658C899.376 486.899 897.26 487.439 897.26 489.918C897.26 492.062 898.872 493.241 900.946 493.241ZM901.408 491.537C900.207 491.537 899.341 490.997 899.341 489.946C899.341 488.81 900.349 488.405 901.578 488.241C902.267 488.149 903.901 487.964 904.206 487.659V489.065C904.206 490.358 903.176 491.537 901.408 491.537ZM909.158 493H911.282V486.338C911.282 484.911 912.382 483.881 913.888 483.881C914.328 483.881 914.826 483.959 914.996 484.009V481.977C914.783 481.949 914.364 481.928 914.094 481.928C912.816 481.928 911.722 482.652 911.324 483.824H911.211V482.091H909.158V493ZM919.911 493.241C921.715 493.241 922.73 492.325 923.135 491.509H923.221V493H925.294V485.756C925.294 482.581 922.794 481.949 921.061 481.949C919.087 481.949 917.269 482.744 916.559 484.733L918.554 485.188C918.867 484.413 919.662 483.668 921.09 483.668C922.461 483.668 923.164 484.385 923.164 485.621V485.67C923.164 486.445 922.368 486.43 920.408 486.658C918.341 486.899 916.225 487.439 916.225 489.918C916.225 492.062 917.837 493.241 919.911 493.241ZM920.373 491.537C919.172 491.537 918.306 490.997 918.306 489.946C918.306 488.81 919.314 488.405 920.543 488.241C921.232 488.149 922.865 487.964 923.171 487.659V489.065C923.171 490.358 922.141 491.537 920.373 491.537ZM938.011 493.22C940.589 493.22 942.258 491.672 942.493 489.548H940.426C940.156 490.727 939.24 491.423 938.025 491.423C936.228 491.423 935.071 489.925 935.071 487.545C935.071 485.209 936.25 483.739 938.025 483.739C939.375 483.739 940.199 484.591 940.426 485.614H942.493C942.265 483.412 940.468 481.949 937.99 481.949C934.914 481.949 932.926 484.264 932.926 487.595C932.926 490.884 934.843 493.22 938.011 493.22ZM949.359 493.22C952.434 493.22 954.444 490.969 954.444 487.595C954.444 484.2 952.434 481.949 949.359 481.949C946.283 481.949 944.273 484.2 944.273 487.595C944.273 490.969 946.283 493.22 949.359 493.22ZM949.366 491.438C947.356 491.438 946.418 489.683 946.418 487.588C946.418 485.5 947.356 483.724 949.366 483.724C951.362 483.724 952.299 485.5 952.299 487.588C952.299 489.683 951.362 491.438 949.366 491.438ZM956.814 493H958.938V486.274C958.938 484.804 959.968 483.781 961.175 483.781C962.354 483.781 963.171 484.562 963.171 485.749V493H965.287V486.047C965.287 484.733 966.09 483.781 967.475 483.781C968.597 483.781 969.52 484.406 969.52 485.884V493H971.644V485.685C971.644 483.192 970.252 481.949 968.277 481.949C966.708 481.949 965.529 482.702 965.003 483.866H964.89C964.414 482.673 963.412 481.949 961.956 481.949C960.515 481.949 959.442 482.666 958.988 483.866H958.853V482.091H956.814V493ZM979.192 493.22C981.571 493.22 983.254 492.048 983.737 490.273L981.727 489.911C981.344 490.94 980.42 491.466 979.213 491.466C977.395 491.466 976.173 490.287 976.116 488.185H983.872V487.432C983.872 483.49 981.514 481.949 979.043 481.949C976.003 481.949 974 484.264 974 487.616C974 491.004 975.974 493.22 979.192 493.22ZM976.124 486.594C976.209 485.045 977.331 483.703 979.057 483.703C980.705 483.703 981.784 484.925 981.791 486.594H976.124ZM991.399 493.192C993.65 492.979 995.092 491.509 995.305 489.548H993.238C992.968 490.727 992.052 491.423 990.838 491.423C989.041 491.423 987.883 489.925 987.883 487.545C987.883 485.209 989.062 483.739 990.838 483.739C992.187 483.739 993.011 484.591 993.238 485.614H995.305C995.078 483.412 993.281 481.949 990.802 481.949C987.727 481.949 985.738 484.264 985.738 487.595C985.738 490.592 987.329 492.801 990.014 493.163L989.765 494.349C990.809 494.449 991.264 494.655 991.257 495.287C991.25 495.919 990.575 496.189 989.595 496.189L989.637 497.375C991.74 497.375 992.883 496.509 992.876 495.223C992.876 494.151 992.152 493.653 991.335 493.526L991.399 493.192ZM1000.75 493.241C1002.55 493.241 1003.57 492.325 1003.98 491.509H1004.06V493H1006.13V485.756C1006.13 482.581 1003.63 481.949 1001.9 481.949C999.927 481.949 998.109 482.744 997.398 484.733L999.394 485.188C999.707 484.413 1000.5 483.668 1001.93 483.668C1003.3 483.668 1004 484.385 1004 485.621V485.67C1004 486.445 1003.21 486.43 1001.25 486.658C999.181 486.899 997.065 487.439 997.065 489.918C997.065 492.062 998.677 493.241 1000.75 493.241ZM1001.21 491.537C1000.01 491.537 999.146 490.997 999.146 489.946C999.146 488.81 1000.15 488.405 1001.38 488.241C1002.07 488.149 1003.71 487.964 1004.01 487.659V489.065C1004.01 490.358 1002.98 491.537 1001.21 491.537ZM1008.96 493H1011.09V486.338C1011.09 484.911 1012.19 483.881 1013.69 483.881C1014.13 483.881 1014.63 483.959 1014.8 484.009V481.977C1014.59 481.949 1014.17 481.928 1013.9 481.928C1012.62 481.928 1011.53 482.652 1011.13 483.824H1011.02V482.091H1008.96V493Z" fill="#B3B9FF"/>
<g clip-path="url(#clip2)">
<path d="M840 451.833C851.05 451.833 860 460.633 860 471.487C860 480.172 854.27 487.537 846.325 490.133C845.325 490.318 844.958 489.71 844.958 489.188C844.958 488.722 844.975 487.485 844.983 485.847C850.547 487.032 851.72 483.21 851.72 483.21C852.63 480.942 853.945 480.335 853.945 480.335C855.757 479.117 853.805 479.142 853.805 479.142C851.797 479.278 850.742 481.167 850.742 481.167C848.958 484.172 846.06 483.303 844.917 482.802C844.737 481.53 844.222 480.665 843.65 480.173C848.092 479.682 852.76 477.992 852.76 470.462C852.76 468.317 851.985 466.563 850.702 465.188C850.927 464.692 851.602 462.693 850.527 459.987C850.527 459.987 848.852 459.46 845.027 462.002C843.427 461.565 841.727 461.348 840.027 461.338C838.327 461.348 836.627 461.565 835.027 462.002C831.227 459.46 829.552 459.987 829.552 459.987C828.477 462.693 829.152 464.692 829.352 465.188C828.077 466.563 827.302 468.317 827.302 470.462C827.302 478.012 831.977 479.673 836.427 480.157C835.727 480.747 835.077 481.952 835.077 483.793C835.077 486.423 835.102 488.537 835.102 489.175C835.102 489.69 834.752 490.305 833.727 490.108C825.725 487.528 820 480.158 820 471.487C820 460.633 828.955 451.833 840 451.833Z" fill="#B3B9FF"/>
</g>
<path d="M822.582 407H833.18C839.176 407 842.116 403.945 842.116 399.866C842.116 395.903 839.304 393.577 836.517 393.436V393.18C839.074 392.58 841.094 390.79 841.094 387.607C841.094 383.707 838.281 380.818 832.605 380.818H822.582V407ZM827.325 403.037V395.366H832.554C835.482 395.366 837.297 397.156 837.297 399.496C837.297 401.58 835.865 403.037 832.426 403.037H827.325ZM827.325 391.953V384.73H832.119C834.906 384.73 836.351 386.2 836.351 388.22C836.351 390.521 834.484 391.953 832.017 391.953H827.325ZM854.731 407.384C859.308 407.384 862.453 405.146 863.271 401.733L858.95 401.247C858.324 402.909 856.789 403.778 854.795 403.778C851.804 403.778 849.822 401.81 849.784 398.447H863.463V397.028C863.463 390.138 859.321 387.108 854.488 387.108C848.863 387.108 845.194 391.237 845.194 397.297C845.194 403.459 848.812 407.384 854.731 407.384ZM849.797 395.328C849.937 392.822 851.791 390.713 854.552 390.713C857.211 390.713 859.001 392.656 859.027 395.328H849.797ZM867.378 407H872.006V395.06C872.006 392.643 873.616 391.007 875.611 391.007C877.567 391.007 878.909 392.324 878.909 394.344V407H883.447V394.753C883.447 392.541 884.764 391.007 887.001 391.007C888.868 391.007 890.351 392.107 890.351 394.536V407H894.991V393.82C894.991 389.435 892.46 387.108 888.855 387.108C886.004 387.108 883.831 388.514 882.962 390.7H882.757C882.003 388.476 880.098 387.108 877.452 387.108C874.818 387.108 872.849 388.463 872.031 390.7H871.801V387.364H867.378V407ZM911.588 394.19H899.801V398H911.588V394.19ZM933.996 387.364H929.074L924.548 401.95H924.344L919.831 387.364H914.896L921.889 407H927.003L933.996 387.364ZM937.198 407H941.826V387.364H937.198V407ZM939.525 384.577C940.995 384.577 942.197 383.452 942.197 382.071C942.197 380.678 940.995 379.553 939.525 379.553C938.042 379.553 936.84 380.678 936.84 382.071C936.84 383.452 938.042 384.577 939.525 384.577ZM951.213 395.494C951.213 392.656 952.926 391.02 955.368 391.02C957.758 391.02 959.19 392.592 959.19 395.213V407H963.818V394.497C963.831 389.793 961.146 387.108 957.093 387.108C954.153 387.108 952.133 388.514 951.238 390.7H951.008V387.364H946.585V407H951.213V395.494ZM975.809 407.345C979.184 407.345 980.706 405.338 981.434 403.906H981.716V407H986.267V380.818H981.626V390.611H981.434C980.731 389.192 979.287 387.108 975.822 387.108C971.284 387.108 967.717 390.662 967.717 397.207C967.717 403.676 971.181 407.345 975.809 407.345ZM977.1 403.548C974.045 403.548 972.434 400.864 972.434 397.182C972.434 393.526 974.02 390.905 977.1 390.905C980.079 390.905 981.716 393.372 981.716 397.182C981.716 400.991 980.054 403.548 977.1 403.548ZM999.763 407.384C1005.52 407.384 1009.17 403.331 1009.17 397.259C1009.17 391.173 1005.52 387.108 999.763 387.108C994.011 387.108 990.354 391.173 990.354 397.259C990.354 403.331 994.011 407.384 999.763 407.384ZM999.789 403.676C996.606 403.676 995.046 400.838 995.046 397.246C995.046 393.653 996.606 390.777 999.789 390.777C1002.92 390.777 1004.48 393.653 1004.48 397.246C1004.48 400.838 1002.92 403.676 999.789 403.676Z" fill="white"/>
<path d="M820 546C820 543.239 822.239 541 825 541H1160V621H825C822.239 621 820 618.761 820 616V546Z" fill="url(#paint3_linear)"/>
<path d="M856.566 588C860.998 588 863.498 585.244 863.498 580.699C863.498 576.182 860.998 573.455 856.765 573.455H852.077V588H856.566ZM853.839 586.438V575.017H856.651C860.06 575.017 861.793 577.176 861.793 580.699C861.793 584.25 860.06 586.438 856.452 586.438H853.839ZM866.225 588H867.901V577.091H866.225V588ZM867.077 575.273C867.731 575.273 868.27 574.761 868.27 574.136C868.27 573.511 867.731 573 867.077 573C866.424 573 865.884 573.511 865.884 574.136C865.884 574.761 866.424 575.273 867.077 575.273ZM875.374 592.318C877.988 592.318 880.09 591.125 880.09 588.312V577.091H878.471V578.824H878.301C877.931 578.256 877.249 576.949 875.119 576.949C872.363 576.949 870.46 579.136 870.46 582.489C870.46 585.898 872.448 587.83 875.09 587.83C877.221 587.83 877.903 586.58 878.272 585.983H878.414V588.199C878.414 590.017 877.136 590.841 875.374 590.841C873.393 590.841 872.697 589.797 872.249 589.193L870.914 590.131C871.596 591.274 872.938 592.318 875.374 592.318ZM875.318 586.324C873.215 586.324 872.136 584.733 872.136 582.46C872.136 580.244 873.187 578.455 875.318 578.455C877.363 578.455 878.443 580.102 878.443 582.46C878.443 584.875 877.335 586.324 875.318 586.324ZM883.158 588H884.835V577.091H883.158V588ZM884.011 575.273C884.664 575.273 885.204 574.761 885.204 574.136C885.204 573.511 884.664 573 884.011 573C883.357 573 882.818 573.511 882.818 574.136C882.818 574.761 883.357 575.273 884.011 575.273ZM892.649 577.091H890.319V574.477H888.643V577.091H886.995V578.511H888.643V585.33C888.643 587.233 890.177 588.142 891.598 588.142C892.223 588.142 892.62 588.028 892.848 587.943L892.507 586.438C892.365 586.466 892.138 586.523 891.768 586.523C891.03 586.523 890.319 586.295 890.319 584.875V578.511H892.649V577.091ZM899.627 588.227C901.843 588.227 903.462 587.119 903.973 585.472L902.354 585.017C901.928 586.153 900.941 586.722 899.627 586.722C897.66 586.722 896.303 585.45 896.225 583.114H904.144V582.403C904.144 578.341 901.729 576.949 899.456 576.949C896.502 576.949 894.542 579.278 894.542 582.631C894.542 585.983 896.473 588.227 899.627 588.227ZM896.225 581.665C896.339 579.967 897.539 578.455 899.456 578.455C901.275 578.455 902.439 579.818 902.439 581.665H896.225ZM920.046 579.534C919.52 577.986 918.341 576.949 916.182 576.949C913.881 576.949 912.177 578.256 912.177 580.102C912.177 581.608 913.071 582.616 915.074 583.085L916.893 583.511C917.993 583.767 918.512 584.293 918.512 585.045C918.512 585.983 917.518 586.75 915.955 586.75C914.584 586.75 913.725 586.161 913.427 584.989L911.836 585.386C912.226 587.24 913.753 588.227 915.983 588.227C918.519 588.227 920.245 586.842 920.245 584.96C920.245 583.44 919.293 582.482 917.347 582.006L915.728 581.608C914.435 581.288 913.853 580.855 913.853 580.017C913.853 579.08 914.847 578.398 916.182 578.398C917.645 578.398 918.249 579.207 918.54 579.96L920.046 579.534ZM927.342 588.227C929.558 588.227 931.177 587.119 931.688 585.472L930.069 585.017C929.643 586.153 928.656 586.722 927.342 586.722C925.374 586.722 924.018 585.45 923.94 583.114H931.859V582.403C931.859 578.341 929.444 576.949 927.171 576.949C924.217 576.949 922.256 579.278 922.256 582.631C922.256 585.983 924.188 588.227 927.342 588.227ZM923.94 581.665C924.053 579.967 925.254 578.455 927.171 578.455C928.989 578.455 930.154 579.818 930.154 581.665H923.94ZM941.283 583.54C941.283 585.585 939.721 586.523 938.471 586.523C937.079 586.523 936.085 585.5 936.085 583.909V577.091H934.408V584.023C934.408 586.807 935.886 588.142 937.931 588.142C939.579 588.142 940.658 587.261 941.17 586.153H941.283V588H942.96V577.091H941.283V583.54ZM958.53 583.54C958.53 585.585 956.967 586.523 955.717 586.523C954.325 586.523 953.331 585.5 953.331 583.909V577.091H951.655V584.023C951.655 586.807 953.132 588.142 955.177 588.142C956.825 588.142 957.905 587.261 958.416 586.153H958.53V588H960.206V577.091H958.53V583.54ZM971.003 579.534C970.477 577.986 969.298 576.949 967.139 576.949C964.838 576.949 963.134 578.256 963.134 580.102C963.134 581.608 964.029 582.616 966.031 583.085L967.85 583.511C968.95 583.767 969.469 584.293 969.469 585.045C969.469 585.983 968.475 586.75 966.912 586.75C965.541 586.75 964.682 586.161 964.384 584.989L962.793 585.386C963.183 587.24 964.71 588.227 966.94 588.227C969.476 588.227 971.202 586.842 971.202 584.96C971.202 583.44 970.25 582.482 968.304 582.006L966.685 581.608C965.392 581.288 964.81 580.855 964.81 580.017C964.81 579.08 965.804 578.398 967.139 578.398C968.602 578.398 969.206 579.207 969.497 579.96L971.003 579.534ZM978.299 588.227C980.515 588.227 982.134 587.119 982.645 585.472L981.026 585.017C980.6 586.153 979.613 586.722 978.299 586.722C976.331 586.722 974.975 585.45 974.897 583.114H982.816V582.403C982.816 578.341 980.401 576.949 978.128 576.949C975.174 576.949 973.214 579.278 973.214 582.631C973.214 585.983 975.145 588.227 978.299 588.227ZM974.897 581.665C975.01 579.967 976.211 578.455 978.128 578.455C979.946 578.455 981.111 579.818 981.111 581.665H974.897ZM985.366 588H987.042V581.097C987.042 579.619 988.206 578.54 989.797 578.54C990.245 578.54 990.706 578.625 990.82 578.653V576.949C990.628 576.935 990.188 576.92 989.939 576.92C988.633 576.92 987.496 577.659 987.098 578.739H986.985V577.091H985.366V588ZM994.483 581.438C994.483 579.534 995.662 578.455 997.267 578.455C998.823 578.455 999.767 579.47 999.767 581.182V588H1001.44V581.068C1001.44 578.284 999.959 576.949 997.75 576.949C996.102 576.949 995.08 577.688 994.568 578.795H994.426V577.091H992.807V588H994.483V581.438ZM1007.72 588.256C1009.62 588.256 1010.61 587.233 1010.96 586.523H1011.04V588H1012.72V580.812C1012.72 577.347 1010.07 576.949 1008.68 576.949C1007.03 576.949 1005.16 577.517 1004.31 579.506L1005.9 580.074C1006.27 579.278 1007.14 578.426 1008.74 578.426C1010.28 578.426 1011.04 579.243 1011.04 580.642V580.699C1011.04 581.509 1010.22 581.438 1008.23 581.693C1006.2 581.956 1003.99 582.403 1003.99 584.903C1003.99 587.034 1005.64 588.256 1007.72 588.256ZM1007.97 586.75C1006.64 586.75 1005.67 586.153 1005.67 584.989C1005.67 583.71 1006.84 583.312 1008.14 583.142C1008.85 583.057 1010.76 582.858 1011.04 582.517V584.051C1011.04 585.415 1009.96 586.75 1007.97 586.75ZM1015.78 588H1017.45V581.182C1017.45 579.584 1018.62 578.455 1019.92 578.455C1021.19 578.455 1022.08 579.286 1022.08 580.528V588H1023.79V580.898C1023.79 579.491 1024.67 578.455 1026.2 578.455C1027.39 578.455 1028.42 579.087 1028.42 580.699V588H1030.09V580.699C1030.09 578.135 1028.72 576.949 1026.77 576.949C1025.21 576.949 1024.06 577.666 1023.5 578.795H1023.39C1022.85 577.631 1021.9 576.949 1020.46 576.949C1019.04 576.949 1017.99 577.631 1017.54 578.795H1017.39V577.091H1015.78V588ZM1037.73 588.227C1039.95 588.227 1041.57 587.119 1042.08 585.472L1040.46 585.017C1040.03 586.153 1039.05 586.722 1037.73 586.722C1035.77 586.722 1034.41 585.45 1034.33 583.114H1042.25V582.403C1042.25 578.341 1039.83 576.949 1037.56 576.949C1034.61 576.949 1032.65 579.278 1032.65 582.631C1032.65 585.983 1034.58 588.227 1037.73 588.227ZM1034.33 581.665C1034.44 579.967 1035.64 578.455 1037.56 578.455C1039.38 578.455 1040.54 579.818 1040.54 581.665H1034.33Z" fill="#B3B9FF"/>
<path d="M1160 541H1235C1237.76 541 1240 543.239 1240 546V616C1240 618.761 1237.76 621 1235 621H1160V541Z" fill="#4953B8"/>
<path d="M1188 582.5L1206.26 582.5L1197.87 590.885L1200 593L1212 581L1200 569L1197.89 571.115L1206.26 579.5L1188 579.5L1188 582.5Z" fill="white"/>
</g>
<defs>
<linearGradient id="paint0_linear" x1="301.555" y1="80" x2="301.555" y2="740" gradientUnits="userSpaceOnUse">
<stop stop-opacity="0"/>
<stop offset="1"/>
</linearGradient>
<linearGradient id="paint1_linear" x1="562.771" y1="80" x2="562.771" y2="598.4" gradientUnits="userSpaceOnUse">
<stop stop-opacity="0"/>
<stop offset="1"/>
</linearGradient>
<linearGradient id="paint2_linear" x1="69.2288" y1="80" x2="69.2288" y2="598.4" gradientUnits="userSpaceOnUse">
<stop stop-opacity="0"/>
<stop offset="1"/>
</linearGradient>
<linearGradient id="paint3_linear" x1="820" y1="581" x2="1160" y2="581" gradientUnits="userSpaceOnUse">
<stop stop-color="#4953B8"/>
<stop offset="1" stop-color="#4953B8" stop-opacity="0.2"/>
</linearGradient>
<clipPath id="clip0">
<rect width="1440" height="820" fill="white"/>
</clipPath>
<clipPath id="clip1">
<rect width="360" height="76" fill="white" transform="translate(820 199)"/>
</clipPath>
<clipPath id="clip2">
<rect width="40" height="40" fill="white" transform="matrix(-1 0 0 1 860 451)"/>
</clipPath>
</defs>
</svg>
